<svg height="512pt" viewBox="-30 0 511 512" width="512pt" xmlns="http://www.w3.org/2000/svg"><path d="m237.34375 421.929688h69.1875v-123.945313h-40.027344v-83.96875h40.027344v-123.945313h-69.1875c-33.574219 0-60.890625 27.316407-60.890625 60.890626v210.078124c0 33.574219 27.316406 60.890626 60.890625 60.890626zm-30.890625-270.96875c0-17.03125 13.855469-30.890626 30.890625-30.890626h39.191406v63.945313h-40.03125v143.96875h40.03125v63.941406h-39.191406c-17.03125 0-30.890625-13.855469-30.890625-30.886719zm0 0"/><path d="m30.535156 0v60.046875h-30.035156v30h30.035156v60.476563h-30.035156v30h30.035156v60.476562h-30.035156v30h30.035156v60.476562h-30.035156v30h30.035156v60.476563h-30.035156v30h30.035156v60.046875h421.917969v-512zm391.917969 482h-361.917969v-30.046875h30.035156v-30h-30.035156v-60.476563h30.035156v-30h-30.035156v-60.476562h30.035156v-30h-30.035156v-60.476562h30.035156v-30h-30.035156v-60.476563h30.035156v-30h-30.035156v-30.046875h361.917969zm0 0"/></svg>